Troy.2004.DVDRip.XviD.RoSubbed.iNT



iMDB: http://www.imdb.com/title/tt0332452/
Subtitles: Romanian


Format                           : AVI
Format/Info                      : Audio Video Interleave
File size                        : 662 MiB
Duration                         : 1h 14mn
Overall bit rate                 : 1 234 Kbps
Writing application              : VirtualDubMod 1.5.10.1 (build 2366/release)
Writing library                  : VirtualDubMod build 2366/release

Video
ID                               : 0
Format                           : MPEG-4 Visual
Format settings, BVOP            : 1
Format settings, QPel            : No
Format settings, GMC             : No warppoints
Format settings, Matrix          : Default (H.263)
Muxing mode                      : Packed bitstream
Codec ID                         : XVID
Codec ID/Hint                    : XviD
Duration                         : 1h 14mn
Bit rate                         : 1 097 Kbps
Width                            : 672 pixels
Height                           : 288 pixels
Display aspect ratio             : 2.35:1
Frame rate                       : 24.000 fps
Color space                      : YUV
Chroma subsampling               : 4:2:0
Bit depth                        : 8 bits
Scan type                        : Progressive
Compression mode                 : Lossy
Bits/(Pixel*Frame)               : 0.236
Stream size                      : 588 MiB (89%)
Writing library                  : DivX 5.1.1 (Maupiti) (UTC 2003-11-19)

Audio
ID                               : 1
Format                           : MPEG Audio
Format version                   : Version 1
Format profile                   : Layer 3
Mode                             : Joint stereo
Mode extension                   : MS Stereo
Codec ID                         : 55
Codec ID/Hint                    : MP3
Duration                         : 1h 14mn
Bit rate mode                    : Constant
Bit rate                         : 128 Kbps
Channel(s)                       : 2 channels
Sampling rate                    : 44.1 KHz
Compression mode                 : Lossy
Stream size                      : 68.6 MiB (10%)
Alignment                        : Split accross interleaves
Interleave, duration             : 41 ms (0.98 video frame)
Interleave, preload duration     : 500 ms
Writing library                  : LAME3.96

Genre: Action, Drama, History 